<svg width="96" height="96" xmlns="http://www.w3.org/2000/svg" xmlns:xlink="http://www.w3.org/1999/xlink" overflow="hidden"><defs><clipPath id="clip0"><rect x="0" y="0" width="96" height="96"/></clipPath></defs><g clip-path="url(#clip0)"><path d="M21.8906 42 81.8906 42 81.8906 44 21.8906 44Z"/><path d="M13.874 55.0686 11.874 53.0586 11.874 79.0254 92 79.0254 92 17 11.874 17 11.874 36.072C12.6016 36.1952 13.2881 36.4942 13.874 36.9429L13.874 33 90 33 90 77.0254 13.874 77.0254ZM90 19 90 31 13.874 31 13.874 19Z"/><path d="M26.998 50 50.891 50 50.891 52 28.994 52 26.998 50Z"/><path d="M35.061 58 50.891 58 50.891 60 35.725 60 35.061 58Z"/><path d="M50.891 68 38.378 68 37.715 66 50.891 66 50.891 68Z"/><path d="M38.8906 25C38.8906 26.1046 37.9952 27 36.8906 27 35.786 27 34.8906 26.1046 34.8906 25 34.8906 23.8954 35.786 23 36.8906 23 37.9952 23 38.8906 23.8954 38.8906 25Z"/><path d="M31.8906 25C31.8906 26.1046 30.9952 27 29.8906 27 28.786 27 27.8906 26.1046 27.8906 25 27.8906 23.8954 28.786 23 29.8906 23 30.9952 23 31.8906 23.8954 31.8906 25Z"/><path d="M24.8906 25C24.8906 26.1046 23.9952 27 22.8906 27 21.786 27 20.8906 26.1046 20.8906 25 20.8906 23.8954 21.786 23 22.8906 23 23.9952 23 24.8906 23.8954 24.8906 25Z"/><path d="M81.8906 50 54.8906 50 54.8906 68 81.8906 68ZM76.4861 66 65.2952 66 68.58 60.6619 70.89 62.2019 73.2 60.6619ZM70.8906 59.7979 69.63 58.9573 70.8911 56.9082 72.1522 58.9573ZM62.9465 66 60.5021 66 63.6357 60.9082 64.8582 62.8938ZM79.8906 66 78.8347 66 70.8906 53.0918 66.0325 60.9858 63.6357 57.0918 58.1536 66 56.8906 66 56.8906 52 79.8906 52Z"/><path d="M75.8906 54C75.8906 54.5523 75.4429 55 74.8906 55 74.3383 55 73.8906 54.5523 73.8906 54 73.8906 53.4477 74.3383 53 74.8906 53 75.4429 53 75.8906 53.4477 75.8906 54Z"/><path d="M6.73 45.0654 9.3579 47.6954 27.043 65.4658 36.4609 68.5723 33.3516 59.1973 12.9453 38.751C12.4554 38.2769 11.8028 38.0082 11.1211 38 10.4513 38.0052 9.81151 38.2785 9.3447 38.7588L6.6377 41.4668C6.5986 41.5049 6.5498 41.5547 6.502 41.6084 5.61159 42.6264 5.7136 44.1731 6.73 45.0654ZM28.51 60.708C29.3777 59.8253 30.7851 59.7781 31.71 60.6006L32.9968 64.4806 32.3623 65.1151 28.4966 63.8393C27.6376 62.9701 27.6435 61.5698 28.51 60.708ZM11.39 46.9146 14.8321 43.4727 29.4127 58.0827C28.5384 58.2369 27.7328 58.6565 27.1054 59.2846 26.4902 59.8849 26.077 60.6616 25.923 61.5072ZM8.0039 42.93 10.7666 40.1653C10.8629 40.0556 11.0035 39.9949 11.1494 40 11.2864 39.9996 11.418 40.0533 11.5156 40.1494L13.4194 42.0571 9.9794 45.4976 8.0947 43.6055C7.88435 43.4534 7.83712 43.1596 7.98922 42.9492 7.99395 42.9427 7.99884 42.9363 8.0039 42.93Z"/></g></svg>