<svg width="96" height="96" xmlns="http://www.w3.org/2000/svg" xmlns:xlink="http://www.w3.org/1999/xlink" overflow="hidden"><defs><clipPath id="clip0"><rect x="0" y="0" width="96" height="96"/></clipPath></defs><g clip-path="url(#clip0)"><path d="M78.6 17.005 17.4 17.005C15.5304 17.0245 14.0195 18.5354 14 20.405L14 61.717C13.9845 63.5792 15.4815 65.1015 17.3438 65.117 17.3625 65.1171 17.3813 65.1171 17.4 65.117L54.8 65.117 68.4 79.017 68.4 65.217 78.6 65.217C80.4696 65.1975 81.9805 63.6866 82 61.817L82 20.506C82.0239 18.6019 80.504 17.0368 78.6 17.005ZM48 54C48 54 34.81 43.912 34.81 35.763 34.81 30.331 43.11 24.511 48 34.211 52.888 24.511 61.189 30.331 61.189 35.763 61.189 43.912 48 54 48 54Z"/></g></svg>