<svg id="Layer_1" data-name="Layer 1" xmlns="http://www.w3.org/2000/svg" xmlns:xlink="http://www.w3.org/1999/xlink" viewBox="0 0 244.69 254"><defs><style>.cls-1{fill:none;stroke:#fff;stroke-miterlimit:10;stroke-width:9px;}.cls-2{fill:url(#linear-gradient);}.cls-3{font-size:159px;fill:#fff;font-family:RockwellNova, Rockwell Nova;}</style><linearGradient id="linear-gradient" x1="51.69" y1="167.19" x2="278.67" y2="167.19" gradientUnits="userSpaceOnUse"><stop offset="0" stop-color="#fff"/><stop offset="0.91" stop-color="#fff"/></linearGradient></defs><rect class="cls-1" x="4.5" y="4.5" width="156" height="245" rx="28.35"/><path class="cls-2" d="M159.84,108.78V95.9h14.9v38.43h-14.9a40.49,40.49,0,0,0-16.19-18,44,44,0,0,0-23.25-6.75,41,41,0,0,0-21.59,5.71A39.12,39.12,0,0,0,84.1,131a48.36,48.36,0,0,0-5.24,22.75,49.52,49.52,0,0,0,5.51,23.67,40.08,40.08,0,0,0,15.34,16.08,43.49,43.49,0,0,0,22.39,5.74,44.71,44.71,0,0,0,17.74-3.49,35.65,35.65,0,0,0,13.59-9.94,29.94,29.94,0,0,0,6.72-14.75H138.64V156.3h42.62v3.8q0,16.69-7.61,29.12a50,50,0,0,1-21,19,67.09,67.09,0,0,1-30.08,6.6q-19,0-33.35-7.65a53.3,53.3,0,0,1-22-21.39q-7.64-13.74-7.64-31.91a62.43,62.43,0,0,1,7.64-31A54.93,54.93,0,0,1,88.33,101.6,60.42,60.42,0,0,1,118.77,94Q142.83,94,159.84,108.78Z" transform="translate(-38.54 -27.81)"/><text class="cls-3" transform="translate(13.15 185.08)">G</text><text class="cls-3" transform="translate(190.5 165.22)">J</text><rect class="cls-1" x="63.69" y="52.23" width="19.72" height="19.72" transform="translate(-60.9 42.38) rotate(-45)"/><rect class="cls-1" x="157.46" y="237.34" width="19.72" height="19.72" transform="translate(-164.32 162.9) rotate(-45)"/></svg>